<svg xmlns="http://www.w3.org/2000/svg" width="656" height="304" viewBox="0 0 656 304">
  <rect width="100%" height="100%" fill="#0f1420" />
  <line x1="327.9" y1="0" x2="327.9" y2="303.5" stroke="#2a344b" stroke-width="2" />
  <text x="40.0" y="26.0" fill="#9fb3d9" font-family="monospace" font-size="16">Source polygon</text>
  <text x="367.9" y="26.0" fill="#9fb3d9" font-family="monospace" font-size="16">Gem facets (single hue family)</text>
  <polygon points="283.03,154.82 280.23,176.05 281.23,199.45 263.78,215.16 254.99,236.33 235.47,247.60 213.62,251.73 195.10,263.52 173.48,259.78 152.28,261.38 134.59,248.72 116.83,239.61 90.90,237.40 69.13,224.54 72.98,196.45 66.79,176.04 47.73,154.82 40.00,128.27 57.08,106.61 71.60,86.75 82.22,63.55 109.85,59.59 125.92,40.00 151.34,43.54 173.48,52.08 193.45,54.40 216.85,50.11 242.68,51.26 254.21,74.09 273.81,87.78 287.91,107.42 286.89,132.26" fill="#1f9d55" stroke="#9df5c2" stroke-width="2.2" />
  <polygon points="610.93,154.82 608.14,176.05 565.42,160.25" fill="#2788cd" stroke="#d7e6ff" stroke-width="1.1" /><polygon points="562.71,147.53 565.42,160.25 499.77,152.53" fill="#237bba" stroke="#d7e6ff" stroke-width="1.1" /><polygon points="565.42,160.25 558.59,171.56 499.77,152.53" fill="#3997d9" stroke="#d7e6ff" stroke-width="1.1" /><polygon points="608.14,176.05 609.14,199.45 558.59,171.56" fill="#1c6293" stroke="#d7e6ff" stroke-width="1.1" /><polygon points="565.42,160.25 558.59,171.56 499.77,152.53" fill="#3997d9" stroke="#d7e6ff" stroke-width="1.1" /><polygon points="558.59,171.56 558.12,184.29 499.77,152.53" fill="#2174af" stroke="#d7e6ff" stroke-width="1.1" /><polygon points="609.14,199.45 591.69,215.16 558.12,184.29" fill="#2582c4" stroke="#d7e6ff" stroke-width="1.1" /><polygon points="558.59,171.56 558.12,184.29 499.77,152.53" fill="#2174af" stroke="#d7e6ff" stroke-width="1.1" /><polygon points="558.12,184.29 538.37,184.82 499.77,152.53" fill="#3695d9" stroke="#d7e6ff" stroke-width="1.1" /><polygon points="591.69,215.16 582.90,236.33 538.37,184.82" fill="#1c6294" stroke="#d7e6ff" stroke-width="1.1" /><polygon points="558.12,184.29 538.37,184.82 499.77,152.53" fill="#3695d9" stroke="#d7e6ff" stroke-width="1.1" /><polygon points="538.37,184.82 543.08,205.32 499.77,152.53" fill="#2277b3" stroke="#d7e6ff" stroke-width="1.1" /><polygon points="582.90,236.33 563.38,247.60 543.08,205.32" fill="#2685c8" stroke="#d7e6ff" stroke-width="1.1" /><polygon points="538.37,184.82 543.08,205.32 499.77,152.53" fill="#2277b3" stroke="#d7e6ff" stroke-width="1.1" /><polygon points="543.08,205.32 524.77,198.62 499.77,152.53" fill="#3e99da" stroke="#d7e6ff" stroke-width="1.1" /><polygon points="563.38,247.60 541.53,251.73 524.77,198.62" fill="#1f6ba1" stroke="#d7e6ff" stroke-width="1.1" /><polygon points="543.08,205.32 524.77,198.62 499.77,152.53" fill="#3e99da" stroke="#d7e6ff" stroke-width="1.1" /><polygon points="524.77,198.62 518.70,213.75 499.77,152.53" fill="#2581c2" stroke="#d7e6ff" stroke-width="1.1" /><polygon points="541.53,251.73 523.01,263.52 518.70,213.75" fill="#2f91d7" stroke="#d7e6ff" stroke-width="1.1" /><polygon points="524.77,198.62 518.70,213.75 499.77,152.53" fill="#2581c2" stroke="#d7e6ff" stroke-width="1.1" /><polygon points="518.70,213.75 506.85,214.66 499.77,152.53" fill="#51a3de" stroke="#d7e6ff" stroke-width="1.1" /><polygon points="523.01,263.52 501.39,259.78 506.85,214.66" fill="#2379b6" stroke="#d7e6ff" stroke-width="1.1" /><polygon points="518.70,213.75 506.85,214.66 499.77,152.53" fill="#51a3de" stroke="#d7e6ff" stroke-width="1.1" /><polygon points="506.85,214.66 495.25,206.87 499.77,152.53" fill="#2d90d7" stroke="#d7e6ff" stroke-width="1.1" /><polygon points="501.39,259.78 480.19,261.38 495.25,206.87" fill="#4da1dd" stroke="#d7e6ff" stroke-width="1.1" /><polygon points="506.85,214.66 495.25,206.87 499.77,152.53" fill="#2d90d7" stroke="#d7e6ff" stroke-width="1.1" /><polygon points="495.25,206.87 483.46,211.34 499.77,152.53" fill="#71b4e4" stroke="#d7e6ff" stroke-width="1.1" /><polygon points="480.19,261.38 462.50,248.72 483.46,211.34" fill="#298ed6" stroke="#d7e6ff" stroke-width="1.1" /><polygon points="495.25,206.87 483.46,211.34 499.77,152.53" fill="#71b4e4" stroke="#d7e6ff" stroke-width="1.1" /><polygon points="483.46,211.34 472.31,207.04 499.77,152.53" fill="#4da1dd" stroke="#d7e6ff" stroke-width="1.1" /><polygon points="462.50,248.72 444.74,239.61 472.31,207.04" fill="#6fb3e4" stroke="#d7e6ff" stroke-width="1.1" /><polygon points="483.46,211.34 472.31,207.04 499.77,152.53" fill="#4da1dd" stroke="#d7e6ff" stroke-width="1.1" /><polygon points="472.31,207.04 467.02,193.94 499.77,152.53" fill="#93c6ea" stroke="#d7e6ff" stroke-width="1.1" /><polygon points="444.74,239.61 418.81,237.40 467.02,193.94" fill="#4da1dd" stroke="#d7e6ff" stroke-width="1.1" /><polygon points="472.31,207.04 467.02,193.94 499.77,152.53" fill="#93c6ea" stroke="#d7e6ff" stroke-width="1.1" /><polygon points="467.02,193.94 459.88,186.60 499.77,152.53" fill="#73b5e4" stroke="#d7e6ff" stroke-width="1.1" /><polygon points="418.81,237.40 397.04,224.54 459.88,186.60" fill="#8dc3e9" stroke="#d7e6ff" stroke-width="1.1" /><polygon points="467.02,193.94 459.88,186.60 499.77,152.53" fill="#73b5e4" stroke="#d7e6ff" stroke-width="1.1" /><polygon points="459.88,186.60 451.92,180.05 499.77,152.53" fill="#b6d9f1" stroke="#d7e6ff" stroke-width="1.1" /><polygon points="397.04,224.54 400.89,196.45 451.92,180.05" fill="#6ab0e3" stroke="#d7e6ff" stroke-width="1.1" /><polygon points="459.88,186.60 451.92,180.05 499.77,152.53" fill="#b6d9f1" stroke="#d7e6ff" stroke-width="1.1" /><polygon points="451.92,180.05 451.51,168.49 499.77,152.53" fill="#92c5ea" stroke="#d7e6ff" stroke-width="1.1" /><polygon points="400.89,196.45 394.70,176.04 451.51,168.49" fill="#b0d5f0" stroke="#d7e6ff" stroke-width="1.1" /><polygon points="451.92,180.05 451.51,168.49 499.77,152.53" fill="#92c5ea" stroke="#d7e6ff" stroke-width="1.1" /><polygon points="451.51,168.49 439.48,159.32 499.77,152.53" fill="#d3e8f7" stroke="#d7e6ff" stroke-width="1.1" /><polygon points="394.70,176.04 375.64,154.82 439.48,159.32" fill="#85bfe8" stroke="#d7e6ff" stroke-width="1.1" /><polygon points="451.51,168.49 439.48,159.32 499.77,152.53" fill="#d3e8f7" stroke="#d7e6ff" stroke-width="1.1" /><polygon points="439.48,159.32 444.18,147.76 499.77,152.53" fill="#a9d2ef" stroke="#d7e6ff" stroke-width="1.1" /><polygon points="375.64,154.82 367.91,128.27 444.18,147.76" fill="#beddf3" stroke="#d7e6ff" stroke-width="1.1" /><polygon points="439.48,159.32 444.18,147.76 499.77,152.53" fill="#a9d2ef" stroke="#d7e6ff" stroke-width="1.1" /><polygon points="444.18,147.76 434.40,133.93 499.77,152.53" fill="#e4f1fa" stroke="#d7e6ff" stroke-width="1.1" /><polygon points="367.91,128.27 384.99,106.61 434.40,133.93" fill="#8fc4ea" stroke="#d7e6ff" stroke-width="1.1" /><polygon points="444.18,147.76 434.40,133.93 499.77,152.53" fill="#e4f1fa" stroke="#d7e6ff" stroke-width="1.1" /><polygon points="434.40,133.93 446.08,124.64 499.77,152.53" fill="#b4d7f1" stroke="#d7e6ff" stroke-width="1.1" /><polygon points="384.99,106.61 399.51,86.75 446.08,124.64" fill="#c9e2f5" stroke="#d7e6ff" stroke-width="1.1" /><polygon points="434.40,133.93 446.08,124.64 499.77,152.53" fill="#b4d7f1" stroke="#d7e6ff" stroke-width="1.1" /><polygon points="446.08,124.64 448.91,111.08 499.77,152.53" fill="#e9f3fb" stroke="#d7e6ff" stroke-width="1.1" /><polygon points="399.51,86.75 410.12,63.55 448.91,111.08" fill="#93c6ea" stroke="#d7e6ff" stroke-width="1.1" /><polygon points="446.08,124.64 448.91,111.08 499.77,152.53" fill="#e9f3fb" stroke="#d7e6ff" stroke-width="1.1" /><polygon points="448.91,111.08 459.00,103.63 499.77,152.53" fill="#b2d6f0" stroke="#d7e6ff" stroke-width="1.1" /><polygon points="410.12,63.55 437.76,59.59 459.00,103.63" fill="#c4e0f4" stroke="#d7e6ff" stroke-width="1.1" /><polygon points="448.91,111.08 459.00,103.63 499.77,152.53" fill="#b2d6f0" stroke="#d7e6ff" stroke-width="1.1" /><polygon points="459.00,103.63 472.99,101.56 499.77,152.53" fill="#e1eff9" stroke="#d7e6ff" stroke-width="1.1" /><polygon points="437.76,59.59 453.83,40.00 472.99,101.56" fill="#8bc2e9" stroke="#d7e6ff" stroke-width="1.1" /><polygon points="459.00,103.63 472.99,101.56 499.77,152.53" fill="#e1eff9" stroke="#d7e6ff" stroke-width="1.1" /><polygon points="472.99,101.56 480.45,88.14 499.77,152.53" fill="#a3ceed" stroke="#d7e6ff" stroke-width="1.1" /><polygon points="453.83,40.00 479.25,43.54 480.45,88.14" fill="#b2d6f0" stroke="#d7e6ff" stroke-width="1.1" /><polygon points="472.99,101.56 480.45,88.14 499.77,152.53" fill="#a3ceed" stroke="#d7e6ff" stroke-width="1.1" /><polygon points="480.45,88.14 494.40,93.08 499.77,152.53" fill="#cbe4f5" stroke="#d7e6ff" stroke-width="1.1" /><polygon points="479.25,43.54 501.39,52.08 494.40,93.08" fill="#76b7e5" stroke="#d7e6ff" stroke-width="1.1" /><polygon points="480.45,88.14 494.40,93.08 499.77,152.53" fill="#cbe4f5" stroke="#d7e6ff" stroke-width="1.1" /><polygon points="494.40,93.08 505.22,105.88 499.77,152.53" fill="#8dc3e9" stroke="#d7e6ff" stroke-width="1.1" /><polygon points="501.39,52.08 521.36,54.40 505.22,105.88" fill="#9ecced" stroke="#d7e6ff" stroke-width="1.1" /><polygon points="494.40,93.08 505.22,105.88 499.77,152.53" fill="#8dc3e9" stroke="#d7e6ff" stroke-width="1.1" /><polygon points="505.22,105.88 515.13,106.27 499.77,152.53" fill="#b0d5f0" stroke="#d7e6ff" stroke-width="1.1" /><polygon points="521.36,54.40 544.76,50.11 515.13,106.27" fill="#57a6df" stroke="#d7e6ff" stroke-width="1.1" /><polygon points="505.22,105.88 515.13,106.27 499.77,152.53" fill="#b0d5f0" stroke="#d7e6ff" stroke-width="1.1" /><polygon points="515.13,106.27 530.72,98.09 499.77,152.53" fill="#68afe2" stroke="#d7e6ff" stroke-width="1.1" /><polygon points="544.76,50.11 570.59,51.26 530.72,98.09" fill="#72b5e4" stroke="#d7e6ff" stroke-width="1.1" /><polygon points="515.13,106.27 530.72,98.09 499.77,152.53" fill="#68afe2" stroke="#d7e6ff" stroke-width="1.1" /><polygon points="530.72,98.09 535.63,110.46 499.77,152.53" fill="#8ac1e9" stroke="#d7e6ff" stroke-width="1.1" /><polygon points="570.59,51.26 582.12,74.09 535.63,110.46" fill="#2f91d7" stroke="#d7e6ff" stroke-width="1.1" /><polygon points="530.72,98.09 535.63,110.46 499.77,152.53" fill="#8ac1e9" stroke="#d7e6ff" stroke-width="1.1" /><polygon points="535.63,110.46 545.10,117.31 499.77,152.53" fill="#469ddc" stroke="#d7e6ff" stroke-width="1.1" /><polygon points="582.12,74.09 601.72,87.78 545.10,117.31" fill="#51a3de" stroke="#d7e6ff" stroke-width="1.1" /><polygon points="535.63,110.46 545.10,117.31 499.77,152.53" fill="#469ddc" stroke="#d7e6ff" stroke-width="1.1" /><polygon points="545.10,117.31 560.09,122.14 499.77,152.53" fill="#66aee2" stroke="#d7e6ff" stroke-width="1.1" /><polygon points="601.72,87.78 615.82,107.42 560.09,122.14" fill="#2379b7" stroke="#d7e6ff" stroke-width="1.1" /><polygon points="545.10,117.31 560.09,122.14 499.77,152.53" fill="#66aee2" stroke="#d7e6ff" stroke-width="1.1" /><polygon points="560.09,122.14 556.15,136.58 499.77,152.53" fill="#288bd2" stroke="#d7e6ff" stroke-width="1.1" /><polygon points="615.82,107.42 614.80,132.26 556.15,136.58" fill="#3293d8" stroke="#d7e6ff" stroke-width="1.1" /><polygon points="560.09,122.14 556.15,136.58 499.77,152.53" fill="#288bd2" stroke="#d7e6ff" stroke-width="1.1" /><polygon points="556.15,136.58 562.71,147.53 499.77,152.53" fill="#4ba0dd" stroke="#d7e6ff" stroke-width="1.1" /><polygon points="614.80,132.26 610.93,154.82 562.71,147.53" fill="#1f6ba2" stroke="#d7e6ff" stroke-width="1.1" /><polygon points="556.15,136.58 562.71,147.53 499.77,152.53" fill="#4ba0dd" stroke="#d7e6ff" stroke-width="1.1" /><polygon points="562.71,147.53 565.42,160.25 499.77,152.53" fill="#237bba" stroke="#d7e6ff" stroke-width="1.1" />
  <polygon points="610.93,154.82 608.14,176.05 609.14,199.45 591.69,215.16 582.90,236.33 563.38,247.60 541.53,251.73 523.01,263.52 501.39,259.78 480.19,261.38 462.50,248.72 444.74,239.61 418.81,237.40 397.04,224.54 400.89,196.45 394.70,176.04 375.64,154.82 367.91,128.27 384.99,106.61 399.51,86.75 410.12,63.55 437.76,59.59 453.83,40.00 479.25,43.54 501.39,52.08 521.36,54.40 544.76,50.11 570.59,51.26 582.12,74.09 601.72,87.78 615.82,107.42 614.80,132.26" fill="none" stroke="#e3eeff" stroke-width="2.4" />
</svg>
