<svg xmlns="http://www.w3.org/2000/svg" width="225" height="310" viewBox="0 0 225 310">
  <rect width="100%" height="100%" fill="#0a101c" />
  <text x="16" y="22" fill="#9db4de" font-family="monospace" font-size="13">Run: run_1771174001_346 | layers: 2 | style: plausable_2 | top priority: smallest + oldest</text>
  <defs></defs>
  <polygon points="147.40,146.26 176.95,154.98 168.44,143.89" fill="#afd3ed" fill-opacity="0.850" stroke="none" stroke-width="0.00" /><polygon points="147.40,146.26 149.17,154.98 176.95,154.98" fill="#93dbdc" fill-opacity="0.850" stroke="none" stroke-width="0.00" /><polygon points="100.00,151.60 149.17,154.98 147.40,146.26" fill="#90cddf" fill-opacity="0.850" stroke="none" stroke-width="0.00" /><polygon points="100.00,151.60 100.00,154.98 149.17,154.98" fill="#74c6e0" fill-opacity="0.850" stroke="none" stroke-width="0.00" /><polygon points="147.40,146.26 168.44,143.89 161.00,134.21" fill="#75d8dd" fill-opacity="0.850" stroke="none" stroke-width="0.00" /><polygon points="141.89,138.57 147.40,146.26 161.00,134.21" fill="#8ddeda" fill-opacity="0.850" stroke="none" stroke-width="0.00" /><polygon points="100.00,151.60 147.40,146.26 141.89,138.57" fill="#72acdf" fill-opacity="0.850" stroke="none" stroke-width="0.00" /><polygon points="100.00,148.13 100.00,151.60 141.89,138.57" fill="#8fdada" fill-opacity="0.850" stroke="none" stroke-width="0.00" /><polygon points="125.66,135.50 161.00,134.21 155.14,125.19" fill="#96dbef" fill-opacity="0.850" stroke="none" stroke-width="0.00" /><polygon points="125.66,135.50 141.89,138.57 161.00,134.21" fill="#7fcbde" fill-opacity="0.850" stroke="none" stroke-width="0.00" /><polygon points="100.00,144.48 141.89,138.57 125.66,135.50" fill="#8eddd6" fill-opacity="0.850" stroke="none" stroke-width="0.00" /><polygon points="100.00,144.48 100.00,148.13 141.89,138.57" fill="#6ab0e8" fill-opacity="0.850" stroke="none" stroke-width="0.00" /><polygon points="125.66,135.50 155.14,125.19 162.11,110.62" fill="#a0dee0" fill-opacity="0.850" stroke="none" stroke-width="0.00" /><polygon points="128.38,126.87 125.66,135.50 162.11,110.62" fill="#a2f2f0" fill-opacity="0.850" stroke="none" stroke-width="0.00" /><polygon points="100.00,144.48 125.66,135.50 128.38,126.87" fill="#88c3dd" fill-opacity="0.850" stroke="none" stroke-width="0.00" /><polygon points="100.00,140.53 100.00,144.48 128.38,126.87" fill="#8ac0ef" fill-opacity="0.850" stroke="none" stroke-width="0.00" /><polygon points="130.73,116.82 162.11,110.62 170.84,91.62" fill="#7ce2eb" fill-opacity="0.850" stroke="none" stroke-width="0.00" /><polygon points="130.73,116.82 128.38,126.87 162.11,110.62" fill="#9cc6de" fill-opacity="0.850" stroke="none" stroke-width="0.00" /><polygon points="100.00,136.13 128.38,126.87 130.73,116.82" fill="#79c3df" fill-opacity="0.850" stroke="none" stroke-width="0.00" /><polygon points="100.00,136.13 100.00,140.53 128.38,126.87" fill="#91ded7" fill-opacity="0.850" stroke="none" stroke-width="0.00" /><polygon points="130.73,116.82 170.84,91.62 170.51,74.82" fill="#94d8e1" fill-opacity="0.850" stroke="none" stroke-width="0.00" /><polygon points="132.76,104.93 130.73,116.82 170.51,74.82" fill="#8ce4ed" fill-opacity="0.850" stroke="none" stroke-width="0.00" /><polygon points="100.00,136.13 130.73,116.82 132.76,104.93" fill="#9dd8ed" fill-opacity="0.850" stroke="none" stroke-width="0.00" /><polygon points="100.00,131.06 100.00,136.13 132.76,104.93" fill="#a8d9e3" fill-opacity="0.850" stroke="none" stroke-width="0.00" /><polygon points="136.91,88.07 170.51,74.82 159.58,65.40" fill="#aef0ec" fill-opacity="0.850" stroke="none" stroke-width="0.00" /><polygon points="136.91,88.07 132.76,104.93 170.51,74.82" fill="#7ac4d9" fill-opacity="0.850" stroke="none" stroke-width="0.00" /><polygon points="100.00,124.98 132.76,104.93 136.91,88.07" fill="#8ad7df" fill-opacity="0.850" stroke="none" stroke-width="0.00" /><polygon points="100.00,124.98 100.00,131.06 132.76,104.93" fill="#85ebe8" fill-opacity="0.850" stroke="none" stroke-width="0.00" /><polygon points="136.91,88.07 159.58,65.40 147.22,58.15" fill="#93cedf" fill-opacity="0.850" stroke="none" stroke-width="0.00" /><polygon points="113.95,99.86 136.91,88.07 147.22,58.15" fill="#66b9e7" fill-opacity="0.850" stroke="none" stroke-width="0.00" /><polygon points="100.00,124.98 136.91,88.07 113.95,99.86" fill="#6ab2e9" fill-opacity="0.850" stroke="none" stroke-width="0.00" /><polygon points="93.92,124.98 100.00,124.98 113.95,99.86" fill="#83d8e8" fill-opacity="0.850" stroke="none" stroke-width="0.00" /><polygon points="114.09,84.82 147.22,58.15 135.26,51.12" fill="#86e1de" fill-opacity="0.850" stroke="none" stroke-width="0.00" /><polygon points="114.09,84.82 113.95,99.86 147.22,58.15" fill="#8ce2eb" fill-opacity="0.850" stroke="none" stroke-width="0.00" /><polygon points="88.85,124.98 113.95,99.86 114.09,84.82" fill="#7bbae4" fill-opacity="0.850" stroke="none" stroke-width="0.00" /><polygon points="88.85,124.98 93.92,124.98 113.95,99.86" fill="#79beec" fill-opacity="0.850" stroke="none" stroke-width="0.00" /><polygon points="114.09,84.82 135.26,51.12 120.31,50.50" fill="#8ee6e0" fill-opacity="0.850" stroke="none" stroke-width="0.00" /><polygon points="97.64,97.59 114.09,84.82 120.31,50.50" fill="#9fcde5" fill-opacity="0.850" stroke="none" stroke-width="0.00" /><polygon points="88.85,124.98 114.09,84.82 97.64,97.59" fill="#8acfef" fill-opacity="0.850" stroke="none" stroke-width="0.00" /><polygon points="84.45,124.98 88.85,124.98 97.64,97.59" fill="#87efee" fill-opacity="0.850" stroke="none" stroke-width="0.00" /><polygon points="91.51,93.51 120.31,50.50 106.63,50.28" fill="#a2d7f1" fill-opacity="0.850" stroke="none" stroke-width="0.00" /><polygon points="91.51,93.51 97.64,97.59 120.31,50.50" fill="#a0e2e2" fill-opacity="0.850" stroke="none" stroke-width="0.00" /><polygon points="80.50,124.98 97.64,97.59 91.51,93.51" fill="#7bcedb" fill-opacity="0.850" stroke="none" stroke-width="0.00" /><polygon points="80.50,124.98 84.45,124.98 97.64,97.59" fill="#a0eaeb" fill-opacity="0.850" stroke="none" stroke-width="0.00" /><polygon points="91.51,93.51 106.63,50.28 94.46,47.82" fill="#73afde" fill-opacity="0.850" stroke="none" stroke-width="0.00" /><polygon points="87.77,77.12 91.51,93.51 94.46,47.82" fill="#97d2ec" fill-opacity="0.850" stroke="none" stroke-width="0.00" /><polygon points="80.50,124.98 91.51,93.51 87.77,77.12" fill="#8bd1da" fill-opacity="0.850" stroke="none" stroke-width="0.00" /><polygon points="76.85,124.98 80.50,124.98 87.77,77.12" fill="#8bc2e3" fill-opacity="0.850" stroke="none" stroke-width="0.00" /><polygon points="77.48,88.59 94.46,47.82 82.81,41.31" fill="#9ecfe1" fill-opacity="0.850" stroke="none" stroke-width="0.00" /><polygon points="77.48,88.59 87.77,77.12 94.46,47.82" fill="#9cc4e8" fill-opacity="0.850" stroke="none" stroke-width="0.00" /><polygon points="73.38,124.98 87.77,77.12 77.48,88.59" fill="#84dfd7" fill-opacity="0.850" stroke="none" stroke-width="0.00" /><polygon points="73.38,124.98 76.85,124.98 87.77,77.12" fill="#80dce5" fill-opacity="0.850" stroke="none" stroke-width="0.00" /><polygon points="77.48,88.59 82.81,41.31 70.00,48.03" fill="#86bfea" fill-opacity="0.850" stroke="none" stroke-width="0.00" /><polygon points="70.00,95.18 77.48,88.59 70.00,48.03" fill="#96e1dc" fill-opacity="0.850" stroke="none" stroke-width="0.00" /><polygon points="73.38,124.98 77.48,88.59 70.00,95.18" fill="#7ad3d7" fill-opacity="0.850" stroke="none" stroke-width="0.00" /><polygon points="70.00,124.98 73.38,124.98 70.00,95.18" fill="#a0dfec" fill-opacity="0.850" stroke="none" stroke-width="0.00" /><polygon points="62.77,90.80 70.00,48.03 58.91,56.54" fill="#9bdfe6" fill-opacity="0.850" stroke="none" stroke-width="0.00" /><polygon points="62.77,90.80 70.00,95.18 70.00,48.03" fill="#8fdeda" fill-opacity="0.850" stroke="none" stroke-width="0.00" /><polygon points="66.62,124.98 70.00,95.18 62.77,90.80" fill="#82cbdf" fill-opacity="0.850" stroke="none" stroke-width="0.00" /><polygon points="66.62,124.98 70.00,124.98 70.00,95.18" fill="#88cee9" fill-opacity="0.850" stroke="none" stroke-width="0.00" /><polygon points="62.77,90.80 58.91,56.54 49.23,63.98" fill="#89cee8" fill-opacity="0.850" stroke="none" stroke-width="0.00" /><polygon points="55.19,90.11 62.77,90.80 49.23,63.98" fill="#79bfea" fill-opacity="0.850" stroke="none" stroke-width="0.00" /><polygon points="66.62,124.98 62.77,90.80 55.19,90.11" fill="#7edeeb" fill-opacity="0.850" stroke="none" stroke-width="0.00" /><polygon points="63.15,124.98 66.62,124.98 55.19,90.11" fill="#7ee9e3" fill-opacity="0.850" stroke="none" stroke-width="0.00" /><polygon points="47.10,89.55 49.23,63.98 41.00,72.10" fill="#94daee" fill-opacity="0.850" stroke="none" stroke-width="0.00" /><polygon points="47.10,89.55 55.19,90.11 49.23,63.98" fill="#98d0f0" fill-opacity="0.850" stroke="none" stroke-width="0.00" /><polygon points="59.50,124.98 55.19,90.11 47.10,89.55" fill="#69e7e1" fill-opacity="0.850" stroke="none" stroke-width="0.00" /><polygon points="59.50,124.98 63.15,124.98 55.19,90.11" fill="#7ab2db" fill-opacity="0.850" stroke="none" stroke-width="0.00" /><polygon points="47.10,89.55 41.00,72.10 40.26,93.23" fill="#a4e8f1" fill-opacity="0.850" stroke="none" stroke-width="0.00" /><polygon points="46.40,105.97 47.10,89.55 40.26,93.23" fill="#abe4df" fill-opacity="0.850" stroke="none" stroke-width="0.00" /><polygon points="59.50,124.98 47.10,89.55 46.40,105.97" fill="#69c9eb" fill-opacity="0.850" stroke="none" stroke-width="0.00" /><polygon points="55.55,124.98 59.50,124.98 46.40,105.97" fill="#93e3ef" fill-opacity="0.850" stroke="none" stroke-width="0.00" /><polygon points="45.48,115.95 40.26,93.23 40.06,107.33" fill="#94ddde" fill-opacity="0.850" stroke="none" stroke-width="0.00" /><polygon points="45.48,115.95 46.40,105.97 40.26,93.23" fill="#81e1e1" fill-opacity="0.850" stroke="none" stroke-width="0.00" /><polygon points="51.15,124.98 46.40,105.97 45.48,115.95" fill="#8ecddc" fill-opacity="0.850" stroke="none" stroke-width="0.00" /><polygon points="51.15,124.98 55.55,124.98 46.40,105.97" fill="#86e0e2" fill-opacity="0.850" stroke="none" stroke-width="0.00" /><polygon points="45.48,115.95 40.06,107.33 40.14,117.54" fill="#a1dfea" fill-opacity="0.850" stroke="none" stroke-width="0.00" /><polygon points="43.62,121.90 45.48,115.95 40.14,117.54" fill="#a7d7f3" fill-opacity="0.850" stroke="none" stroke-width="0.00" /><polygon points="51.15,124.98 45.48,115.95 43.62,121.90" fill="#94d2eb" fill-opacity="0.850" stroke="none" stroke-width="0.00" /><polygon points="46.08,124.98 51.15,124.98 43.62,121.90" fill="#8fdaee" fill-opacity="0.850" stroke="none" stroke-width="0.00" /><polygon points="40.14,125.12 40.14,117.54 40.21,125.19" fill="#9fdde5" fill-opacity="0.850" stroke="none" stroke-width="0.00" /><polygon points="40.14,125.12 43.62,121.90 40.14,117.54" fill="#c1f2ee" fill-opacity="0.850" stroke="none" stroke-width="0.00" /><polygon points="40.00,124.98 43.62,121.90 40.14,125.12" fill="#b3dbeb" fill-opacity="0.850" stroke="none" stroke-width="0.00" /><polygon points="40.00,124.98 46.08,124.98 43.62,121.90" fill="#a1e9e9" fill-opacity="0.850" stroke="none" stroke-width="0.00" /><polygon points="40.14,125.12 40.21,125.19 40.26,131.26" fill="#addaf1" fill-opacity="0.850" stroke="none" stroke-width="0.00" /><polygon points="40.16,131.18 40.14,125.12 40.26,131.26" fill="#bde5ec" fill-opacity="0.850" stroke="none" stroke-width="0.00" /><polygon points="40.00,124.98 40.14,125.12 40.16,131.18" fill="#b7dbeb" fill-opacity="0.850" stroke="none" stroke-width="0.00" /><polygon points="40.00,131.06 40.00,124.98 40.16,131.18" fill="#cee2f4" fill-opacity="0.850" stroke="none" stroke-width="0.00" /><polygon points="40.12,136.20 40.26,131.26 40.30,136.32" fill="#aadced" fill-opacity="0.850" stroke="none" stroke-width="0.00" /><polygon points="40.12,136.20 40.16,131.18 40.26,131.26" fill="#bee5f4" fill-opacity="0.850" stroke="none" stroke-width="0.00" /><polygon points="40.00,136.13 40.16,131.18 40.12,136.20" fill="#cfeff3" fill-opacity="0.850" stroke="none" stroke-width="0.00" /><polygon points="40.00,136.13 40.00,131.06 40.16,131.18" fill="#c4f5f2" fill-opacity="0.850" stroke="none" stroke-width="0.00" /><polygon points="40.12,136.20 40.30,136.32 40.34,140.70" fill="#b9f0ef" fill-opacity="0.850" stroke="none" stroke-width="0.00" /><polygon points="40.17,140.61 40.12,136.20 40.34,140.70" fill="#c8f6f3" fill-opacity="0.850" stroke="none" stroke-width="0.00" /><polygon points="40.00,136.13 40.12,136.20 40.17,140.61" fill="#ccf0f0" fill-opacity="0.850" stroke="none" stroke-width="0.00" /><polygon points="40.00,140.53 40.00,136.13 40.17,140.61" fill="#b8e4ed" fill-opacity="0.850" stroke="none" stroke-width="0.00" /><polygon points="40.19,144.55 40.34,140.70 40.38,144.61" fill="#c8ebf5" fill-opacity="0.850" stroke="none" stroke-width="0.00" /><polygon points="40.19,144.55 40.17,140.61 40.34,140.70" fill="#ccf5f1" fill-opacity="0.850" stroke="none" stroke-width="0.00" /><polygon points="40.00,144.48 40.17,140.61 40.19,144.55" fill="#d4e8f3" fill-opacity="0.850" stroke="none" stroke-width="0.00" /><polygon points="40.00,144.48 40.00,140.53 40.17,140.61" fill="#d7f1f5" fill-opacity="0.850" stroke="none" stroke-width="0.00" /><polygon points="40.19,144.55 40.38,144.61 40.41,148.23" fill="#ddf5f8" fill-opacity="0.850" stroke="none" stroke-width="0.00" /><polygon points="40.25,148.19 40.19,144.55 40.41,148.23" fill="#ccf5f5" fill-opacity="0.850" stroke="none" stroke-width="0.00" /><polygon points="40.00,144.48 40.19,144.55 40.25,148.19" fill="#c6e0f6" fill-opacity="0.850" stroke="none" stroke-width="0.00" /><polygon points="40.00,148.13 40.00,144.48 40.25,148.19" fill="#ddf0f6" fill-opacity="0.850" stroke="none" stroke-width="0.00" /><polygon points="40.30,151.63 40.41,148.23 40.44,151.65" fill="#c7f2f3" fill-opacity="0.850" stroke="none" stroke-width="0.00" /><polygon points="40.30,151.63 40.25,148.19 40.41,148.23" fill="#b4e8eb" fill-opacity="0.850" stroke="none" stroke-width="0.00" /><polygon points="40.00,151.60 40.25,148.19 40.30,151.63" fill="#b5d3eb" fill-opacity="0.850" stroke="none" stroke-width="0.00" /><polygon points="40.00,151.60 40.00,148.13 40.25,148.19" fill="#c4e0f2" fill-opacity="0.850" stroke="none" stroke-width="0.00" /><polygon points="40.30,151.63 40.44,151.65 40.46,154.98" fill="#c6def2" fill-opacity="0.850" stroke="none" stroke-width="0.00" /><polygon points="40.18,154.98 40.30,151.63 40.46,154.98" fill="#bfe6f6" fill-opacity="0.850" stroke="none" stroke-width="0.00" /><polygon points="40.00,151.60 40.30,151.63 40.18,154.98" fill="#d3e7f4" fill-opacity="0.850" stroke="none" stroke-width="0.00" /><polygon points="40.00,154.98 40.00,151.60 40.18,154.98" fill="#c2e7ed" fill-opacity="0.850" stroke="none" stroke-width="0.00" /><polygon points="40.22,158.33 40.46,154.98 40.49,158.30" fill="#cbebf8" fill-opacity="0.850" stroke="none" stroke-width="0.00" /><polygon points="40.22,158.33 40.18,154.98 40.46,154.98" fill="#b7dae7" fill-opacity="0.850" stroke="none" stroke-width="0.00" /><polygon points="40.00,158.36 40.18,154.98 40.22,158.33" fill="#b3f4f0" fill-opacity="0.850" stroke="none" stroke-width="0.00" /><polygon points="40.00,158.36 40.00,154.98 40.18,154.98" fill="#dff6f5" fill-opacity="0.850" stroke="none" stroke-width="0.00" /><polygon points="40.22,158.33 40.49,158.30 40.52,161.71" fill="#e0f1f8" fill-opacity="0.850" stroke="none" stroke-width="0.00" /><polygon points="40.25,161.77 40.22,158.33 40.52,161.71" fill="#d2eaf5" fill-opacity="0.850" stroke="none" stroke-width="0.00" /><polygon points="40.00,158.36 40.22,158.33 40.25,161.77" fill="#c4dcef" fill-opacity="0.850" stroke="none" stroke-width="0.00" /><polygon points="40.00,161.83 40.00,158.36 40.25,161.77" fill="#cce5ef" fill-opacity="0.850" stroke="none" stroke-width="0.00" /><polygon points="40.22,165.40 40.52,161.71 40.55,165.28" fill="#c7ecf7" fill-opacity="0.850" stroke="none" stroke-width="0.00" /><polygon points="40.22,165.40 40.25,161.77 40.52,161.71" fill="#b4e6ec" fill-opacity="0.850" stroke="none" stroke-width="0.00" /><polygon points="40.00,165.48 40.25,161.77 40.22,165.40" fill="#cce9f4" fill-opacity="0.850" stroke="none" stroke-width="0.00" /><polygon points="40.00,165.48 40.00,161.83 40.25,161.77" fill="#c0f0f1" fill-opacity="0.850" stroke="none" stroke-width="0.00" /><polygon points="40.22,165.40 40.55,165.28 40.59,169.14" fill="#c3daeb" fill-opacity="0.850" stroke="none" stroke-width="0.00" /><polygon points="40.30,169.28 40.22,165.40 40.59,169.14" fill="#bbd5eb" fill-opacity="0.850" stroke="none" stroke-width="0.00" /><polygon points="40.00,165.48 40.22,165.40 40.30,169.28" fill="#d1e8f2" fill-opacity="0.850" stroke="none" stroke-width="0.00" /><polygon points="40.00,169.43 40.00,165.48 40.30,169.28" fill="#daedf4" fill-opacity="0.850" stroke="none" stroke-width="0.00" /><polygon points="40.42,173.57 40.59,169.14 40.62,173.44" fill="#b4efeb" fill-opacity="0.850" stroke="none" stroke-width="0.00" /><polygon points="40.42,173.57 40.30,169.28 40.59,169.14" fill="#cbe4f5" fill-opacity="0.850" stroke="none" stroke-width="0.00" /><polygon points="40.00,173.83 40.30,169.28 40.42,173.57" fill="#abd0e9" fill-opacity="0.850" stroke="none" stroke-width="0.00" /><polygon points="40.00,173.83 40.00,169.43 40.30,169.28" fill="#a2d2f0" fill-opacity="0.850" stroke="none" stroke-width="0.00" /><polygon points="40.42,173.57 40.62,173.44 40.66,178.37" fill="#d6f2f1" fill-opacity="0.850" stroke="none" stroke-width="0.00" /><polygon points="40.38,178.60 40.42,173.57 40.66,178.37" fill="#c1def1" fill-opacity="0.850" stroke="none" stroke-width="0.00" /><polygon points="40.00,173.83 40.42,173.57 40.38,178.60" fill="#b3ece9" fill-opacity="0.850" stroke="none" stroke-width="0.00" /><polygon points="40.00,178.90 40.00,173.83 40.38,178.60" fill="#d0f3f0" fill-opacity="0.850" stroke="none" stroke-width="0.00" /><polygon points="40.30,184.68 40.66,178.37 40.72,184.26" fill="#c2edf6" fill-opacity="0.850" stroke="none" stroke-width="0.00" /><polygon points="40.30,184.68 40.38,178.60 40.66,178.37" fill="#bdf2f3" fill-opacity="0.850" stroke="none" stroke-width="0.00" /><polygon points="40.00,184.98 40.38,178.60 40.30,184.68" fill="#cae7ee" fill-opacity="0.850" stroke="none" stroke-width="0.00" /><polygon points="40.00,184.98 40.00,178.90 40.38,178.60" fill="#a6e2ec" fill-opacity="0.850" stroke="none" stroke-width="0.00" /><polygon points="40.30,184.68 40.72,184.26 40.78,191.62" fill="#bbf6f2" fill-opacity="0.850" stroke="none" stroke-width="0.00" /><polygon points="43.97,187.62 40.30,184.68 40.78,191.62" fill="#d0f0ef" fill-opacity="0.850" stroke="none" stroke-width="0.00" /><polygon points="40.00,184.98 40.30,184.68 43.97,187.62" fill="#cff5f2" fill-opacity="0.850" stroke="none" stroke-width="0.00" /><polygon points="46.08,184.98 40.00,184.98 43.97,187.62" fill="#c0e9f4" fill-opacity="0.850" stroke="none" stroke-width="0.00" /><polygon points="46.32,192.67 40.78,191.62 40.86,201.35" fill="#7abed4" fill-opacity="0.850" stroke="none" stroke-width="0.00" /><polygon points="46.32,192.67 43.97,187.62 40.78,191.62" fill="#cae7f3" fill-opacity="0.850" stroke="none" stroke-width="0.00" /><polygon points="51.15,184.98 43.97,187.62 46.32,192.67" fill="#91c8dd" fill-opacity="0.850" stroke="none" stroke-width="0.00" /><polygon points="51.15,184.98 46.08,184.98 43.97,187.62" fill="#9cc4e5" fill-opacity="0.850" stroke="none" stroke-width="0.00" /><polygon points="46.32,192.67 40.86,201.35 40.98,215.24" fill="#a4dee1" fill-opacity="0.850" stroke="none" stroke-width="0.00" /><polygon points="48.52,199.57 46.32,192.67 40.98,215.24" fill="#a3e0ee" fill-opacity="0.850" stroke="none" stroke-width="0.00" /><polygon points="51.15,184.98 46.32,192.67 48.52,199.57" fill="#90cbdb" fill-opacity="0.850" stroke="none" stroke-width="0.00" /><polygon points="55.55,184.98 51.15,184.98 48.52,199.57" fill="#7bc0e8" fill-opacity="0.850" stroke="none" stroke-width="0.00" /><polygon points="49.50,213.57 40.98,215.24 41.17,237.37" fill="#88cde0" fill-opacity="0.850" stroke="none" stroke-width="0.00" /><polygon points="49.50,213.57 48.52,199.57 40.98,215.24" fill="#78c5eb" fill-opacity="0.850" stroke="none" stroke-width="0.00" /><polygon points="59.50,184.98 48.52,199.57 49.50,213.57" fill="#73cfe6" fill-opacity="0.850" stroke="none" stroke-width="0.00" /><polygon points="59.50,184.98 55.55,184.98 48.52,199.57" fill="#9ac0e1" fill-opacity="0.850" stroke="none" stroke-width="0.00" /><polygon points="49.50,213.57 41.17,237.37 45.54,262.14" fill="#8cc5e3" fill-opacity="0.850" stroke="none" stroke-width="0.00" /><polygon points="52.45,231.86 49.50,213.57 45.54,262.14" fill="#94c8ec" fill-opacity="0.850" stroke="none" stroke-width="0.00" /><polygon points="59.50,184.98 49.50,213.57 52.45,231.86" fill="#83ede8" fill-opacity="0.850" stroke="none" stroke-width="0.00" /><polygon points="63.15,184.98 59.50,184.98 52.45,231.86" fill="#95d9ec" fill-opacity="0.850" stroke="none" stroke-width="0.00" /><polygon points="60.59,238.47 45.54,262.14 57.19,268.64" fill="#92bdde" fill-opacity="0.850" stroke="none" stroke-width="0.00" /><polygon points="60.59,238.47 52.45,231.86 45.54,262.14" fill="#8fd0de" fill-opacity="0.850" stroke="none" stroke-width="0.00" /><polygon points="66.62,184.98 52.45,231.86 60.59,238.47" fill="#7ab9e5" fill-opacity="0.850" stroke="none" stroke-width="0.00" /><polygon points="66.62,184.98 63.15,184.98 52.45,231.86" fill="#7ddaee" fill-opacity="0.850" stroke="none" stroke-width="0.00" /><polygon points="60.59,238.47 57.19,268.64 70.00,260.00" fill="#7fc8ec" fill-opacity="0.850" stroke="none" stroke-width="0.00" /><polygon points="70.00,218.21 60.59,238.47 70.00,260.00" fill="#6de4e8" fill-opacity="0.850" stroke="none" stroke-width="0.00" /><polygon points="66.62,184.98 60.59,238.47 70.00,218.21" fill="#8ee7ef" fill-opacity="0.850" stroke="none" stroke-width="0.00" /><polygon points="70.00,184.98 66.62,184.98 70.00,218.21" fill="#83bad7" fill-opacity="0.850" stroke="none" stroke-width="0.00" /><polygon points="78.07,226.60 70.00,260.00 80.69,249.87" fill="#88dedf" fill-opacity="0.850" stroke="none" stroke-width="0.00" /><polygon points="78.07,226.60 70.00,218.21 70.00,260.00" fill="#9ddaeb" fill-opacity="0.850" stroke="none" stroke-width="0.00" /><polygon points="73.38,184.98 70.00,218.21 78.07,226.60" fill="#7eb8de" fill-opacity="0.850" stroke="none" stroke-width="0.00" /><polygon points="73.38,184.98 70.00,184.98 70.00,218.21" fill="#a1c4e2" fill-opacity="0.850" stroke="none" stroke-width="0.00" /><polygon points="78.07,226.60 80.69,249.87 90.42,244.45" fill="#65d0e9" fill-opacity="0.850" stroke="none" stroke-width="0.00" /><polygon points="83.03,212.05 78.07,226.60 90.42,244.45" fill="#8fe4e3" fill-opacity="0.850" stroke="none" stroke-width="0.00" /><polygon points="73.38,184.98 78.07,226.60 83.03,212.05" fill="#6ddbe3" fill-opacity="0.850" stroke="none" stroke-width="0.00" /><polygon points="76.85,184.98 73.38,184.98 83.03,212.05" fill="#82ebe2" fill-opacity="0.850" stroke="none" stroke-width="0.00" /><polygon points="87.80,205.86 90.42,244.45 99.82,240.19" fill="#90eaf0" fill-opacity="0.850" stroke="none" stroke-width="0.00" /><polygon points="87.80,205.86 83.03,212.05 90.42,244.45" fill="#84bbe6" fill-opacity="0.850" stroke="none" stroke-width="0.00" /><polygon points="80.50,184.98 83.03,212.05 87.80,205.86" fill="#9ee7eb" fill-opacity="0.850" stroke="none" stroke-width="0.00" /><polygon points="80.50,184.98 76.85,184.98 83.03,212.05" fill="#87c5eb" fill-opacity="0.850" stroke="none" stroke-width="0.00" /><polygon points="87.80,205.86 99.82,240.19 115.05,248.53" fill="#a0dfe5" fill-opacity="0.850" stroke="none" stroke-width="0.00" /><polygon points="104.91,227.47 87.80,205.86 115.05,248.53" fill="#97cde9" fill-opacity="0.850" stroke="none" stroke-width="0.00" /><polygon points="80.50,184.98 87.80,205.86 104.91,227.47" fill="#8fe3df" fill-opacity="0.850" stroke="none" stroke-width="0.00" /><polygon points="84.45,184.98 80.50,184.98 104.91,227.47" fill="#a4d2e1" fill-opacity="0.850" stroke="none" stroke-width="0.00" /><polygon points="110.30,219.12 115.05,248.53 135.26,258.84" fill="#85ded8" fill-opacity="0.850" stroke="none" stroke-width="0.00" /><polygon points="110.30,219.12 104.91,227.47 115.05,248.53" fill="#8ed6eb" fill-opacity="0.850" stroke="none" stroke-width="0.00" /><polygon points="88.85,184.98 104.91,227.47 110.30,219.12" fill="#9dcae2" fill-opacity="0.850" stroke="none" stroke-width="0.00" /><polygon points="88.85,184.98 84.45,184.98 104.91,227.47" fill="#9ee0e2" fill-opacity="0.850" stroke="none" stroke-width="0.00" /><polygon points="110.30,219.12 135.26,258.84 147.22,251.81" fill="#87d9dc" fill-opacity="0.850" stroke="none" stroke-width="0.00" /><polygon points="116.59,213.40 110.30,219.12 147.22,251.81" fill="#a1caec" fill-opacity="0.850" stroke="none" stroke-width="0.00" /><polygon points="88.85,184.98 110.30,219.12 116.59,213.40" fill="#9ee6e8" fill-opacity="0.850" stroke="none" stroke-width="0.00" /><polygon points="93.92,184.98 88.85,184.98 116.59,213.40" fill="#72cae8" fill-opacity="0.850" stroke="none" stroke-width="0.00" /><polygon points="136.66,221.64 147.22,251.81 159.58,244.56" fill="#71c1e9" fill-opacity="0.850" stroke="none" stroke-width="0.00" /><polygon points="136.66,221.64 116.59,213.40 147.22,251.81" fill="#70d3dd" fill-opacity="0.850" stroke="none" stroke-width="0.00" /><polygon points="100.00,184.98 116.59,213.40 136.66,221.64" fill="#86c6e0" fill-opacity="0.850" stroke="none" stroke-width="0.00" /><polygon points="100.00,184.98 93.92,184.98 116.59,213.40" fill="#91c5db" fill-opacity="0.850" stroke="none" stroke-width="0.00" /><polygon points="136.66,221.64 159.58,244.56 170.69,235.27" fill="#92ccdc" fill-opacity="0.850" stroke="none" stroke-width="0.00" /><polygon points="135.77,207.43 136.66,221.64 170.69,235.27" fill="#91e5e7" fill-opacity="0.850" stroke="none" stroke-width="0.00" /><polygon points="100.00,184.98 136.66,221.64 135.77,207.43" fill="#8ec1eb" fill-opacity="0.850" stroke="none" stroke-width="0.00" /><polygon points="100.00,178.90 100.00,184.98 135.77,207.43" fill="#7cd5e0" fill-opacity="0.850" stroke="none" stroke-width="0.00" /><polygon points="127.85,191.33 170.69,235.27 171.98,219.06" fill="#8ac3e6" fill-opacity="0.850" stroke="none" stroke-width="0.00" /><polygon points="127.85,191.33 135.77,207.43 170.69,235.27" fill="#95daef" fill-opacity="0.850" stroke="none" stroke-width="0.00" /><polygon points="100.00,173.83 135.77,207.43 127.85,191.33" fill="#75c6e4" fill-opacity="0.850" stroke="none" stroke-width="0.00" /><polygon points="100.00,173.83 100.00,178.90 135.77,207.43" fill="#97e7eb" fill-opacity="0.850" stroke="none" stroke-width="0.00" /><polygon points="127.85,191.33 171.98,219.06 173.14,204.65" fill="#7ec3dd" fill-opacity="0.850" stroke="none" stroke-width="0.00" /><polygon points="140.68,189.02 127.85,191.33 173.14,204.65" fill="#a7d0ec" fill-opacity="0.850" stroke="none" stroke-width="0.00" /><polygon points="100.00,173.83 127.85,191.33 140.68,189.02" fill="#a0e2e0" fill-opacity="0.850" stroke="none" stroke-width="0.00" /><polygon points="100.00,169.43 100.00,173.83 140.68,189.02" fill="#93c4dc" fill-opacity="0.850" stroke="none" stroke-width="0.00" /><polygon points="132.97,177.01 173.14,204.65 174.20,191.44" fill="#9cd0f2" fill-opacity="0.850" stroke="none" stroke-width="0.00" /><polygon points="132.97,177.01 140.68,189.02 173.14,204.65" fill="#7fb9e3" fill-opacity="0.850" stroke="none" stroke-width="0.00" /><polygon points="100.00,165.48 140.68,189.02 132.97,177.01" fill="#8ed9e7" fill-opacity="0.850" stroke="none" stroke-width="0.00" /><polygon points="100.00,165.48 100.00,169.43 140.68,189.02" fill="#96d1dc" fill-opacity="0.850" stroke="none" stroke-width="0.00" /><polygon points="132.97,177.01 174.20,191.44 177.16,179.44" fill="#7ed3ea" fill-opacity="0.850" stroke="none" stroke-width="0.00" /><polygon points="149.31,173.08 132.97,177.01 177.16,179.44" fill="#aae7e4" fill-opacity="0.850" stroke="none" stroke-width="0.00" /><polygon points="100.00,165.48 132.97,177.01 149.31,173.08" fill="#8fe3e1" fill-opacity="0.850" stroke="none" stroke-width="0.00" /><polygon points="100.00,161.83 100.00,165.48 149.31,173.08" fill="#96d9e0" fill-opacity="0.850" stroke="none" stroke-width="0.00" /><polygon points="144.66,163.39 177.16,179.44 183.66,167.79" fill="#90e5e5" fill-opacity="0.850" stroke="none" stroke-width="0.00" /><polygon points="144.66,163.39 149.31,173.08 177.16,179.44" fill="#94c6e0" fill-opacity="0.850" stroke="none" stroke-width="0.00" /><polygon points="100.00,158.36 149.31,173.08 144.66,163.39" fill="#98d2e1" fill-opacity="0.850" stroke="none" stroke-width="0.00" /><polygon points="100.00,158.36 100.00,161.83 149.31,173.08" fill="#92cee1" fill-opacity="0.850" stroke="none" stroke-width="0.00" /><polygon points="144.66,163.39 183.66,167.79 176.95,154.98" fill="#70e0ea" fill-opacity="0.850" stroke="none" stroke-width="0.00" /><polygon points="149.17,154.98 144.66,163.39 176.95,154.98" fill="#a7e1ee" fill-opacity="0.850" stroke="none" stroke-width="0.00" /><polygon points="100.00,158.36 144.66,163.39 149.17,154.98" fill="#94ccf0" fill-opacity="0.850" stroke="none" stroke-width="0.00" /><polygon points="100.00,154.98 100.00,158.36 149.17,154.98" fill="#89e9e7" fill-opacity="0.850" stroke="none" stroke-width="0.00" />
</svg>
